<?xml version="1.0" encoding="UTF-8" standalone="no"?>
<svg
   xmlns:dc="http://purl.org/dc/elements/1.1/"
   xmlns:cc="http://creativecommons.org/ns#"
   xmlns:rdf="http://www.w3.org/1999/02/22-rdf-syntax-ns#"
   xmlns:svg="http://www.w3.org/2000/svg"
   xmlns="http://www.w3.org/2000/svg"
   viewBox="0 0 24 24"
   fill="black"
   width="48px"
   height="48px"
   version="1.1"
   id="svg6">
  <metadata
     id="metadata12">
    <rdf:RDF>
      <cc:Work
         rdf:about="">
        <dc:format>image/svg+xml</dc:format>
        <dc:type
           rdf:resource="http://purl.org/dc/dcmitype/StillImage" />
        <dc:title></dc:title>
      </cc:Work>
    </rdf:RDF>
  </metadata>
  <defs
     id="defs10" />
  <path
     d="M0 0h24v24H0z"
     fill="none"
     id="path2" />
  <path
     d="M 11.999999,3 C 7.0304992,3 3,7.1316232 3,12.227522 c 0,4.077028 2.5784995,7.535811 6.155249,8.756151 0.44925,0.08535 0.59475,-0.200699 0.59475,-0.44369 V 18.822126 C 7.2464991,19.380391 6.7252493,17.733278 6.7252493,17.733278 6.3157494,16.666729 5.7254995,16.382984 5.7254995,16.382984 c -0.8167498,-0.572876 0.06225,-0.560572 0.06225,-0.560572 0.9037499,0.0646 1.3792497,0.951204 1.3792497,0.951204 0.8025,1.410273 2.1052488,1.002723 2.6189998,0.766653 0.08025,-0.595944 0.313499,-1.003493 0.5715,-1.233411 -1.99875,-0.234534 -4.1002496,-1.025795 -4.1002496,-4.560704 0,-1.008107 0.35175,-1.830894 0.9269999,-2.476822 -0.093,-0.232994 -0.40125,-1.1718952 0.08775,-2.4422171 0,0 0.7559998,-0.2476057 2.4757487,0.9458213 0.717751,-0.2045441 1.487251,-0.3068156 2.252251,-0.3106598 0.764999,0.00382 1.535249,0.1061213 2.254499,0.3106598 1.71825,-1.193427 2.472749,-0.9458213 2.472749,-0.9458213 0.48975,1.2710914 0.181501,2.2099921 0.0885,2.4422171 0.577499,0.645928 0.926249,1.469483 0.926249,2.476822 0,3.544138 -2.105249,4.324631 -4.109248,4.553013 0.322499,0.286054 0.617249,0.847395 0.617249,1.70863 v 2.532186 c 0,0.245298 0.144,0.533658 0.60075,0.442921 C 18.4245,19.761026 21,16.303011 21,12.227522 21,7.1316232 16.970251,3 12.000002,3 Z"
     id="path837"
     style="stroke-width:0.759421" />
</svg>
