<?xml version="1.0" encoding="UTF-8" standalone="no"?>
<svg
   xmlns:dc="http://purl.org/dc/elements/1.1/"
   xmlns:cc="http://creativecommons.org/ns#"
   xmlns:rdf="http://www.w3.org/1999/02/22-rdf-syntax-ns#"
   xmlns:svg="http://www.w3.org/2000/svg"
   xmlns="http://www.w3.org/2000/svg"
   viewBox="0 0 24 24"
   fill="black"
   width="48px"
   height="48px"
   version="1.1"
   id="svg6">
  <metadata
     id="metadata12">
    <rdf:RDF>
      <cc:Work
         rdf:about="">
        <dc:format>image/svg+xml</dc:format>
        <dc:type
           rdf:resource="http://purl.org/dc/dcmitype/StillImage" />
        <dc:title></dc:title>
      </cc:Work>
    </rdf:RDF>
  </metadata>
  <defs
     id="defs10">
	
	
	
	
	
	
	
	
	
	
</defs>
  <path
     d="M0 0h24v24H0z"
     fill="none"
     id="path2" />
  <path
     fill="none"
     d="m 14.492084,10.16738 c -0.842121,0.109293 -1.693177,0.165567 -2.550925,0.165567 -0.0025,0 -0.0049,0 -0.0073,0 -0.888136,-3.27e-4 -1.769071,-0.06077 -2.640254,-0.178232 -0.063573,0.46759 -0.099622,0.956551 -0.099982,1.465231 -4.582e-4,0.682428 0.052347,1.318417 0.1434762,1.908669 0.8569958,-0.113613 1.7233678,-0.172194 2.5966938,-0.172522 0.0025,0 0.005,0 0.0074,0 0.187854,0 0.375332,0.0031 0.562515,0.0085 l -0.29461,-1.311364 c -0.120158,-0.534845 0.444141,-0.96318 0.926966,-0.703603 l 1.443615,0.776077 c 0.0065,-0.165567 0.0098,-0.334112 0.0097,-0.505734 -3.44e-4,-0.504376 -0.03534,-0.989132 -0.09735,-1.452566 z"
     id="path837"
     style="stroke-width:0.0163636" />
  <path
     fill="none"
     d="m 18.392189,7.969026 c -1.030286,-1.81358 -2.803055,-3.1523369 -4.90205,-3.600291 0.667063,0.9621973 1.516368,2.4750139 1.974975,4.4237574 0.989164,-0.1927961 1.967872,-0.4669522 2.927075,-0.8234664 z"
     id="path839"
     style="stroke-width:0.0163636" />
  <path
     fill="none"
     d="M 14.267968,8.9846341 C 13.668896,6.5433783 12.396739,4.8601836 11.89215,4.264597 11.389869,4.86056 10.121983,6.5444092 9.5202762,8.9723286 11.096633,9.1815375 12.690875,9.1857102 14.267968,8.9846341 Z"
     id="path841"
     style="stroke-width:0.0163636" />
  <path
     fill="none"
     d="m 9.5822616,14.708579 c 0.6306704,2.392051 1.8521004,3.826371 2.3088414,4.298396 0.259756,-0.268953 0.765441,-0.846785 1.265693,-1.724382 0.053,-0.09298 0.106855,-0.191602 0.161002,-0.294611 l -0.542012,-2.412537 c -1.065305,-0.04831 -2.133358,-0.0039 -3.1935244,0.133134 z"
     id="path843"
     style="stroke-width:0.0163636" />
  <path
     fill="none"
     d="m 18.901409,9.0646522 c -1.050545,0.3961305 -2.12498,0.7008702 -3.217612,0.9117972 0.07053,0.5228996 0.110618,1.0708676 0.111011,1.6426786 2.78e-4,0.392481 -0.01577,0.770694 -0.04503,1.135586 l 3.063188,1.646753 c 0.349282,-0.859483 0.542225,-1.798526 0.542225,-2.781946 0,-0.897414 -0.160363,-1.7580424 -0.453779,-2.5548688 z"
     id="path845"
     style="stroke-width:0.0163636" />
  <path
     fill="none"
     d="M 7.9882323,11.619079 C 7.988625,11.040101 8.0297959,10.48562 8.1020085,9.9568131 7.0425787,9.746786 6.0003143,9.4492463 4.9807462,9.0647667 4.6873628,9.8615604 4.5270157,10.722156 4.5270157,11.619521 c 0,1.046469 0.2183889,2.042736 0.6112467,2.946318 0.9834045,-0.361407 1.9874762,-0.642779 3.007437,-0.842562 -0.100129,-0.651223 -0.1579908,-1.352274 -0.1574671,-2.104198 z"
     id="path847"
     style="stroke-width:0.0163636" />
  <path
     fill="none"
     d="m 5.71436,15.639587 c 1.0137426,1.564788 2.6008174,2.724854 4.461443,3.181055 C 9.5572416,17.956758 8.8249042,16.652234 8.3839373,14.903224 7.4829401,15.080541 6.5909591,15.326388 5.71436,15.639587 Z"
     id="path849"
     style="stroke-width:0.0163636" />
  <path
     fill="none"
     d="M 10.275408,4.3941968 C 8.2274193,4.86614 6.5012538,6.1890241 5.4900639,7.9688951 6.4186011,8.3140038 7.3654493,8.5815163 8.3223283,8.7732161 8.7780224,6.8505889 9.6132379,5.3543159 10.275408,4.3941968 Z"
     id="path851"
     style="stroke-width:0.0163636" />
  <path
     fill="#2e2e3a"
     d="m 13.317814,16.987982 c -0.05415,0.102993 -0.108,0.201633 -0.161001,0.294611 -0.500253,0.877597 -1.005938,1.455429 -1.265694,1.724382 -0.456741,-0.472009 -1.678187,-1.906345 -2.308841,-4.298396 1.060166,-0.137045 2.12822,-0.18144 3.193508,-0.133134 L 12.50374,13.36457 c -0.187183,-0.0054 -0.374661,-0.0085 -0.562515,-0.0085 -0.0025,0 -0.0049,0 -0.0074,0 -0.873326,3.28e-4 -1.739698,0.05893 -2.5966935,0.172522 -0.091129,-0.590252 -0.1439344,-1.226241 -0.1434762,-1.908669 3.6e-4,-0.50868 0.036409,-0.997641 0.099982,-1.465231 0.8711827,0.117458 1.7521177,0.177905 2.6402537,0.178232 0.0025,0 0.0049,0 0.0073,0 0.857748,0 1.708804,-0.05626 2.550925,-0.165567 0.062,0.463434 0.097,0.948174 0.09733,1.452566 1.31e-4,0.171605 -0.0032,0.340151 -0.0097,0.505734 l 1.170064,0.629018 c 0.02926,-0.364893 0.04531,-0.743105 0.04503,-1.135587 -3.77e-4,-0.571794 -0.04047,-1.119778 -0.111011,-1.6426779 1.092632,-0.2109107 2.167067,-0.5156504 3.217611,-0.9117973 0.293416,0.7968265 0.453763,1.6574542 0.453763,2.5548682 0,0.983405 -0.192943,1.922447 -0.542224,2.781946 l 1.067071,0.573644 c 0.437809,-1.031923 0.680547,-2.165873 0.680547,-3.35559 0,-4.6772625 -3.744798,-8.4963514 -8.393605,-8.6165421 -0.03155,-0.00306 -0.06328,-0.00321 -0.09491,-0.00129 C 12.02841,3.0010146 11.98485,3 11.941077,3 c -0.0704,0 -0.140563,9.819e-4 -0.21055,0.00267 -0.05017,-0.00465 -0.100702,-0.00244 -0.150529,0.00545 -4.5859211,0.1900143 -8.2583756,3.979616 -8.2583756,8.611405 0,1.423258 0.3470396,2.766875 0.9604954,3.951176 0.012158,0.02754 0.025904,0.05382 0.041514,0.07859 1.3951132,2.626525 4.108725,4.449825 7.2525532,4.58147 0.03252,0.0054 0.06534,0.0083 0.09815,0.0083 0.01743,0 0.03482,-0.0012 0.05218,-0.0027 0.07133,0.0018 0.142838,0.0027 0.214576,0.0027 0.04507,0 0.0899,-0.001 0.134802,-0.0017 0.01093,5.89e-4 0.02185,0.0017 0.03278,0.0017 0.01916,0 0.03832,-0.0011 0.05744,-0.0029 0.627725,-0.01617 1.238742,-0.100342 1.826524,-0.244391 z M 18.392189,7.969026 C 17.432986,8.3255238 16.454295,8.5996963 15.465114,8.7924924 15.006507,6.8437326 14.157202,5.3309323 13.490139,4.368735 c 2.098995,0.4479541 3.871764,1.786711 4.90205,3.600291 z M 11.89215,4.264597 c 0.504589,0.5955866 1.776729,2.2787813 2.375818,4.7200371 C 12.690875,9.1857102 11.096633,9.1815375 9.5202762,8.9723122 10.121983,6.5444092 11.389885,4.86056 11.89215,4.264597 Z M 10.275408,4.3941968 C 9.6132379,5.3543159 8.778006,6.8505889 8.3223283,8.7732161 7.3654493,8.5815163 6.4185848,8.3140038 5.4900639,7.9688951 6.5012701,6.1890241 8.2274357,4.86614 10.275408,4.3941968 Z M 4.5270157,11.619521 c 0,-0.897365 0.1603471,-1.7579442 0.4537305,-2.5547543 1.0195517,0.3844796 2.0618325,0.6820193 3.1212623,0.8920464 -0.072213,0.5288069 -0.1133671,1.0833039 -0.1137762,1.6622659 -5.237e-4,0.751924 0.057338,1.452958 0.1574835,2.104181 -1.0199772,0.1998 -2.0240326,0.481156 -3.007437,0.842563 C 4.7454046,13.662257 4.5270157,12.665974 4.5270157,11.619521 Z M 5.71436,15.639587 c 0.8765991,-0.313199 1.7685637,-0.559046 2.669561,-0.736363 0.4409668,1.74901 1.1733043,3.05355 1.791865,3.917418 C 8.3151774,18.364441 6.7281026,17.204375 5.71436,15.639587 Z"
     id="path853"
     style="stroke-width:0.0163636;fill:#000000" />
  <g
     id="g857"
     transform="matrix(0.01636362,0,0,0.01636362,2.1355054,2.1818354)"
     style="fill:#000000">
		<polygon
   fill="#2e2e3a"
   points="1097.074,1076.198 980.109,918.132 1127.515,876.526 688.567,640.555 796.003,1118.727 880.15,991.633 997.338,1150 "
   id="polygon855"
   style="fill:#000000" />

	</g>
</svg>
