<?xml version="1.0" encoding="UTF-8" standalone="no"?>
<svg
   xmlns:dc="http://purl.org/dc/elements/1.1/"
   xmlns:cc="http://creativecommons.org/ns#"
   xmlns:rdf="http://www.w3.org/1999/02/22-rdf-syntax-ns#"
   xmlns:svg="http://www.w3.org/2000/svg"
   xmlns="http://www.w3.org/2000/svg"
   xmlns:sodipodi="http://sodipodi.sourceforge.net/DTD/sodipodi-0.dtd"
   xmlns:inkscape="http://www.inkscape.org/namespaces/inkscape"
   viewBox="0 0 24 24"
   fill="black"
   width="48px"
   height="48px"
   version="1.1"
   id="svg6"
   sodipodi:docname="linkedin-black-48dp.svg"
   inkscape:version="1.0.1 (3bc2e813f5, 2020-09-07)">
  <metadata
     id="metadata12">
    <rdf:RDF>
      <cc:Work
         rdf:about="">
        <dc:format>image/svg+xml</dc:format>
        <dc:type
           rdf:resource="http://purl.org/dc/dcmitype/StillImage" />
        <dc:title></dc:title>
      </cc:Work>
    </rdf:RDF>
  </metadata>
  <defs
     id="defs10" />
  <sodipodi:namedview
     pagecolor="#ffffff"
     bordercolor="#666666"
     borderopacity="1"
     objecttolerance="10"
     gridtolerance="10"
     guidetolerance="10"
     inkscape:pageopacity="0"
     inkscape:pageshadow="2"
     inkscape:window-width="2560"
     inkscape:window-height="1403"
     id="namedview8"
     showgrid="false"
     inkscape:zoom="16.541667"
     inkscape:cx="24"
     inkscape:cy="19.163728"
     inkscape:window-x="0"
     inkscape:window-y="0"
     inkscape:window-maximized="1"
     inkscape:current-layer="svg6" />
  <path
     d="M0 0h24v24H0z"
     fill="none"
     id="path2" />
  <path
     d="M 17.25,3 H 6.7499998 C 4.6792501,3 3,4.67925 3,6.75 v 10.5 C 3,19.320749 4.6792501,21 6.7499998,21 H 17.25 C 19.321501,21 21,19.320749 21,17.25 V 6.75 C 21,4.67925 19.321501,3 17.25,3 Z M 9,17.25 H 6.7499998 V 9 H 9 Z M 7.8750002,8.049 C 7.1504999,8.049 6.5625,7.4565 6.5625,6.726 6.5625,5.9955001 7.1504999,5.403 7.8750002,5.403 8.5995,5.403 9.1875,5.9955001 9.1875,6.726 c 0,0.7305 -0.5872499,1.323 -1.3124998,1.323 z M 17.999999,17.25 h -2.25 v -4.203 c 0,-2.526 -2.999999,-2.33475 -2.999999,0 V 17.25 H 10.5 V 9 h 2.25 v 1.32375 c 1.046999,-1.9394999 5.249999,-2.08275 5.249999,1.857 z"
     id="path837"
     style="stroke-width:0.75" />
</svg>
